<svg xmlns="http://www.w3.org/2000/svg" xmlns:svg="http://www.w3.org/2000/svg" id="svg4" width="512" height="512" version="1.1"><metadata id="metadata10"/><path id="path4559-6-7-5" fill="#fff" fill-opacity="1" stroke-width="1.975" d="m 54.14915,445.07441 c 0,-1.33723 193.97658,-370.326512 200.47931,-381.359012 l 4.49235,-7.62184 4.90655,8.60928 c 2.69863,4.73499 22.47531,42.380272 43.94809,83.655942 21.47281,41.2758 64.77244,124.26304 96.22134,184.41611 44.1299,84.40826 56.57137,109.75487 54.51379,111.05872 -1.46638,0.92921 -19.13766,1.70312 -39.2695,1.71986 l -36.60343,0.0296 -10.79456,-10.94563 c -27.08174,-27.46054 -74.41598,-52.35674 -127.31467,-66.96316 l -23.6989,-6.54376 29.62371,-1.48588 c 27.82898,-1.39581 59.22256,-0.45483 76.38658,2.28986 5.7369,0.91742 7.54733,0.54155 7.54733,-1.56694 0,-5.20908 -72.6179,-137.94998 -75.46774,-137.94998 -2.07691,0 -16.73665,25.55335 -73.64493,128.36945 -27.95613,50.50844 -50.98359,92.02079 -51.17223,92.24967 -0.84243,1.02227 -80.15309,3.03809 -80.15309,2.03704 z"/></svg>